<svg xmlns="http://www.w3.org/2000/svg" data-name="Layer 1" viewBox="0 0 128 128"><path d="M118,54a9.93644,9.93644,0,0,0-6.04724,2.05432,10.02155,10.02155,0,0,0-7.59143-8.77258,10.02122,10.02122,0,0,0-.83557-11.57111,9.93957,9.93957,0,0,0,5.72913-2.82294v-.00049a10.00017,10.00017,0,1,0-16.96558-8.41284,10.02083,10.02083,0,0,0-11.571-.83569,10.02155,10.02155,0,0,0-8.77258-7.59143,10,10,0,1,0-15.89136,0,10.02155,10.02155,0,0,0-8.77258,7.59143,10.02284,10.02284,0,0,0-11.57117.83563,9.99382,9.99382,0,1,0-16.96545,8.4129v.00049a9.93742,9.93742,0,0,0,5.72913,2.823,10.02123,10.02123,0,0,0-.83557,11.571,10.02155,10.02155,0,0,0-7.59143,8.77258,10,10,0,1,0,0,15.89136,10.02155,10.02155,0,0,0,7.59143,8.77258,10.02121,10.02121,0,0,0,.83563,11.57117,9.99072,9.99072,0,1,0,8.4129,16.96545h.00049a9.93739,9.93739,0,0,0,2.823-5.72919,10.02075,10.02075,0,0,0,11.571.83563,10.02155,10.02155,0,0,0,8.77258,7.59143,10,10,0,1,0,15.89136,0,10.02155,10.02155,0,0,0,8.77258-7.59143,10.01842,10.01842,0,0,0,11.57111-.83527,9.93816,9.93816,0,0,0,2.82294,5.72882h.00049a10.00017,10.00017,0,1,0,8.41309-16.9657,10.02133,10.02133,0,0,0,.83545-11.57092,10.02155,10.02155,0,0,0,7.59143-8.77258A9.99381,9.99381,0,1,0,118,54ZM108,71a6.00656,6.00656,0,0,1-6,6h-1.78662a2.0001,2.0001,0,0,0-1.41455,3.41406l1.26367,1.26367a6.007,6.007,0,0,1,0,8.48535l-9.89941,9.89941a6.007,6.007,0,0,1-8.48535-.00049l-1.26367-1.26318A2.0001,2.0001,0,0,0,77,100.21338V102a6.00656,6.00656,0,0,1-6,6H57a6.00656,6.00656,0,0,1-6-6v-1.78662a2.00013,2.00013,0,0,0-3.41406-1.41455l-1.26367,1.26367a6.00785,6.00785,0,0,1-8.48535,0L27.9375,90.16309a6.00652,6.00652,0,0,1,.00049-8.48535l1.26318-1.26367A2.0001,2.0001,0,0,0,27.78662,77H26a6.00656,6.00656,0,0,1-6-6V57a6.00656,6.00656,0,0,1,6-6h1.78662a2.0001,2.0001,0,0,0,1.41455-3.41406L27.9375,46.32227a6.007,6.007,0,0,1,0-8.48535l9.89942-9.89941a6.007,6.007,0,0,1,8.48535.00049l1.26367,1.26318A2.0001,2.0001,0,0,0,51,27.78662V26a6.00656,6.00656,0,0,1,6-6H71a6.00656,6.00656,0,0,1,6,6v1.78662a2.0001,2.0001,0,0,0,3.41406,1.41455l1.26367-1.26367a6.00784,6.00784,0,0,1,8.48535,0l9.89941,9.89941a6.00651,6.00651,0,0,1-.00048,8.48535l-1.26318,1.26367A2.0001,2.0001,0,0,0,100.21338,51H102a6.00656,6.00656,0,0,1,6,6Z"/><path d="M64,31.82A32.18,32.18,0,1,0,96.18,64,32.20887,32.20887,0,0,0,64,31.82ZM68,81a2.00591,2.00591,0,0,1-2,2H62a2.00591,2.00591,0,0,1-2-2V77a2.00591,2.00591,0,0,1,2-2h4a2.00591,2.00591,0,0,1,2,2Zm.41-15.83A1.99368,1.99368,0,0,1,66.42,67H61.58a1.99368,1.99368,0,0,1-1.99-1.83l-1.58-18A2.00452,2.00452,0,0,1,60,45h8a2.00452,2.00452,0,0,1,1.99,2.17Z"/></svg>