<svg xmlns="http://www.w3.org/2000/svg" width="16" height="16" viewBox="0 0 16 16"><path style="line-height:normal;text-indent:0;text-align:start;text-decoration-line:none;text-decoration-style:solid;text-decoration-color:#000;text-transform:none;block-progression:tb;white-space:normal;isolation:auto;mix-blend-mode:normal;solid-color:#000;solid-opacity:1" d="M 7.9941406 -0.001953125 C 5.514782 -0.001953125 3.494138 2.0186469 3.4941406 4.4980469 A 0.50004997 0.50004997 0 0 0 3.5175781 4.65625 C 3.5601547 6.2345523 4.2439522 7.6159658 5.0488281 8.8964844 C 5.8798404 10.218584 6.8429627 11.459309 7.4609375 12.724609 A 0.50005 0.50005 0 0 0 8.3554688 12.734375 C 9.0043181 11.470075 10.016873 10.22845 10.890625 8.90625 C 11.764377 7.58415 12.509766 6.1562594 12.509766 4.5058594 A 0.50005 0.50005 0 0 0 12.476562 4.3203125 C 12.380858 1.9245343 10.412732 -0.001953125 7.9941406 -0.001953125 z M 7.9941406 0.99804688 C 9.9330588 0.99804688 11.494143 2.5591469 11.494141 4.4980469 A 0.50004997 0.50004997 0 0 0 11.503906 4.6054688 C 11.474099 5.9132661 10.870337 7.12422 10.056641 8.3554688 C 9.3688034 9.3963687 8.5911285 10.471091 7.9199219 11.587891 C 7.2827996 10.475891 6.5487837 9.4030344 5.8964844 8.3652344 C 5.1026168 7.1022344 4.5097656 5.8596594 4.5097656 4.5058594 A 0.50005 0.50005 0 0 0 4.5019531 4.4179688 C 4.5452856 2.5172913 6.0826676 0.99804688 7.9941406 0.99804688 z M 7.9941406 3 C 7.1716358 3 6.4941406 3.6775 6.4941406 4.5 C 6.4941406 5.3225 7.1716358 6 7.9941406 6 C 8.8166454 6 9.4941406 5.3225 9.4941406 4.5 C 9.4941406 3.6775 8.8166454 3 7.9941406 3 z M 7.9941406 4 C 8.2762053 4 8.4941406 4.218 8.4941406 4.5 C 8.4941406 4.7821 8.2762053 5 7.9941406 5 C 7.7120759 5 7.4941406 4.7821 7.4941406 4.5 C 7.4941406 4.218 7.7120759 4 7.9941406 4 z M 12.083984 9.2265625 A 0.50005 0.50005 0 0 0 11.904297 10.193359 C 12.900976 10.597059 13.541638 11.126381 13.818359 11.613281 C 14.09508 12.100181 14.088617 12.520962 13.726562 13.039062 C 13.002467 14.075163 10.690977 14.992706 8.0527344 15.003906 C 5.4144686 15.014906 3.0708182 14.120931 2.3046875 13.082031 C 1.9216185 12.562531 1.9026217 12.138797 2.1601562 11.654297 C 2.4176909 11.169897 3.0347645 10.636009 4.015625 10.224609 A 0.50005 0.50005 0 1 0 3.6289062 9.3027344 C 2.5082671 9.7727344 1.6923397 10.404847 1.2773438 11.185547 C 0.86234765 11.966147 0.93417239 12.908481 1.5 13.675781 C 2.6316537 15.210481 5.211068 16.016106 8.0585938 16.003906 C 10.906094 15.991906 13.461316 15.166581 14.546875 13.613281 C 15.089658 12.836581 15.126429 11.891441 14.6875 11.119141 C 14.248571 10.346841 13.413951 9.725225 12.279297 9.265625 A 0.50005 0.50005 0 0 0 12.083984 9.2265625 z " color="#000" enable-background="accumulate" font-family="sans-serif" font-weight="400" overflow="visible"/></svg>