<svg xmlns="http://www.w3.org/2000/svg" width="24" height="24" fill="none" viewBox="0 0 24 24"><path fill="#292D32" fill-rule="evenodd" d="M9.25 11C9.25 9.48122 10.4812 8.25 12 8.25C13.5188 8.25 14.75 9.48122 14.75 11C14.75 12.5188 13.5188 13.75 12 13.75C10.4812 13.75 9.25 12.5188 9.25 11ZM12 9.75C11.3096 9.75 10.75 10.3096 10.75 11C10.75 11.6904 11.3096 12.25 12 12.25C12.6904 12.25 13.25 11.6904 13.25 11C13.25 10.3096 12.6904 9.75 12 9.75Z" clip-rule="evenodd"/><path fill="#292D32" d="M9.25 18.0274C9.25 17.1622 9.82354 16.4019 10.6554 16.1642C11.5342 15.9131 12.4658 15.9131 13.3446 16.1642C14.1765 16.4019 14.75 17.1622 14.75 18.0274V18.5C14.75 18.9142 15.0858 19.25 15.5 19.25C15.9142 19.25 16.25 18.9142 16.25 18.5V18.0274C16.25 16.4925 15.2325 15.1436 13.7567 14.7219C12.6085 14.3939 11.3915 14.3939 10.2433 14.7219C8.7675 15.1436 7.75 16.4925 7.75 18.0274V18.5C7.75 18.9142 8.08579 19.25 8.5 19.25C8.91421 19.25 9.25 18.9142 9.25 18.5V18.0274Z"/><path fill="#292D32" fill-rule="evenodd" d="M11.217 1.75C10.8943 1.74997 10.5981 1.74995 10.3526 1.77492C10.0862 1.80202 9.79764 1.8646 9.52775 2.04493C9.33667 2.17261 9.17261 2.33667 9.04493 2.52776C8.8646 2.79764 8.80202 3.08617 8.77492 3.35256C8.76247 3.47495 8.75623 3.60993 8.75311 3.75452C8.15096 3.7619 7.62807 3.78128 7.17622 3.83222C6.42195 3.91725 5.77343 4.09808 5.21715 4.52493C4.95715 4.72443 4.72443 4.95715 4.52493 5.21715C4.09808 5.77343 3.91725 6.42195 3.83221 7.17622C3.74998 7.9057 3.74999 8.82035 3.75 9.95473V15.5549C3.74998 16.9225 3.74996 18.0248 3.86652 18.8918C3.98754 19.7919 4.24643 20.5497 4.84835 21.1517C5.45027 21.7536 6.20814 22.0125 7.10825 22.1335C7.97522 22.25 9.07754 22.25 10.4451 22.25H13.5549C14.9225 22.25 16.0248 22.25 16.8918 22.1335C17.7919 22.0125 18.5497 21.7536 19.1517 21.1517C19.7536 20.5497 20.0125 19.7919 20.1335 18.8918C20.25 18.0248 20.25 16.9225 20.25 15.5549V9.9548C20.25 8.82042 20.25 7.9057 20.1678 7.17622C20.0828 6.42195 19.9019 5.77343 19.4751 5.21715C19.2756 4.95715 19.0429 4.72443 18.7829 4.52493C18.2266 4.09808 17.5781 3.91725 16.8238 3.83222C16.3719 3.78128 15.849 3.7619 15.2469 3.75452C15.2438 3.60993 15.2375 3.47495 15.2251 3.35256C15.198 3.08617 15.1354 2.79764 14.9551 2.52776C14.8274 2.33667 14.6633 2.17261 14.4722 2.04493C14.2024 1.8646 13.9138 1.80202 13.6474 1.77492C13.4019 1.74995 13.1057 1.74997 12.783 1.75H11.217ZM15.2123 5.25432C15.7942 5.26109 16.2622 5.27841 16.6557 5.32278C17.2762 5.39273 17.6181 5.52187 17.8697 5.71496C18.0257 5.83466 18.1653 5.97429 18.285 6.13029C18.4781 6.38193 18.6073 6.72376 18.6772 7.34426C18.7489 7.97987 18.75 8.80977 18.75 10V15.5C18.75 16.9354 18.7484 17.9365 18.6469 18.6919C18.5482 19.4257 18.3678 19.8142 18.091 20.091C17.8142 20.3678 17.4257 20.5482 16.6919 20.6469C15.9365 20.7484 14.9354 20.75 13.5 20.75H10.5C9.06459 20.75 8.06347 20.7484 7.30812 20.6469C6.57435 20.5482 6.18577 20.3678 5.90901 20.091C5.63225 19.8142 5.4518 19.4257 5.35315 18.6919C5.25159 17.9365 5.25 16.9354 5.25 15.5V10C5.25 8.80977 5.25112 7.97987 5.32277 7.34426C5.39273 6.72376 5.52187 6.38193 5.71496 6.13029C5.83466 5.97429 5.97429 5.83466 6.13029 5.71496C6.38193 5.52187 6.72376 5.39273 7.34426 5.32278C7.7378 5.27841 8.20582 5.26109 8.78774 5.25432C8.82065 5.48991 8.88847 5.7381 9.04493 5.97225C9.17261 6.16333 9.33667 6.3274 9.52775 6.45508C9.79764 6.63541 10.0862 6.69799 10.3526 6.72509C10.5981 6.75006 10.8943 6.75003 11.217 6.75001H12.783C13.1057 6.75003 13.4019 6.75006 13.6474 6.72509C13.9138 6.69799 14.2024 6.63541 14.4722 6.45508C14.6633 6.3274 14.8274 6.16333 14.9551 5.97225C15.1115 5.7381 15.1794 5.48991 15.2123 5.25432ZM10.5044 3.26722C10.4091 3.27691 10.3691 3.28963 10.358 3.2941C10.3326 3.31151 10.3112 3.33321 10.2938 3.3586C10.2894 3.36976 10.2769 3.40907 10.2672 3.50437C10.2509 3.66469 10.25 3.88328 10.25 4.25C10.25 4.61673 10.2509 4.83532 10.2672 4.99564C10.2769 5.09094 10.2894 5.13025 10.2938 5.14141C10.3113 5.1668 10.3332 5.18876 10.3586 5.20617C10.3698 5.21063 10.4091 5.22309 10.5044 5.23279C10.6647 5.2491 10.8833 5.25 11.25 5.25H12.75C13.1167 5.25 13.3353 5.2491 13.4956 5.23279C13.5909 5.22309 13.6302 5.21063 13.6414 5.20617C13.6668 5.18876 13.6888 5.1668 13.7062 5.14141C13.7106 5.13025 13.7231 5.09094 13.7328 4.99564C13.7491 4.83532 13.75 4.61673 13.75 4.25C13.75 3.88328 13.7491 3.66469 13.7328 3.50437C13.7231 3.40907 13.7106 3.36976 13.7062 3.3586C13.6888 3.33321 13.6668 3.31125 13.6414 3.29384C13.6302 3.28937 13.5909 3.27691 13.4956 3.26722C13.3353 3.25091 13.1167 3.25 12.75 3.25H11.25C10.8833 3.25 10.6647 3.25091 10.5044 3.26722ZM10.355 5.20449C10.355 5.20451 10.3544 5.20419 10.355 5.20449Z" clip-rule="evenodd"/></svg>