<svg xmlns="http://www.w3.org/2000/svg" data-name="Layer 1" viewBox="0 0 64 64"><path d="M19.27 30.59a8.24 8.24 0 0 0 8.23-8.23V20.53A6.24 6.24 0 0 0 25.27 8.46a6.15 6.15 0 0 0-3.67 1.2A5 5 0 0 0 14 11.26a4.6 4.6 0 0 0-3 4.31v6.79A8.24 8.24 0 0 0 19.27 30.59zm-.81-20a3 3 0 0 1 2.32 1.11 1 1 0 0 0 .72.36 1 1 0 0 0 .76-.29 4.2 4.2 0 0 1 3-1.26 4.25 4.25 0 1 1-3.81 6.08A1 1 0 0 0 20 16.12a3.21 3.21 0 0 1-1.57.46 3 3 0 0 1 0-6zm-5.42 5a2.59 2.59 0 0 1 .46-1.47 5 5 0 0 0 6.66 4.17 5.83 5.83 0 0 0 5.34 2.67v1.42a6.23 6.23 0 1 1-12.46 0zM60 29.54H56a2.5 2.5 0 0 0-2.45-2 2.53 2.53 0 0 0-1.5.51 2.46 2.46 0 0 0-3 0 2.46 2.46 0 0 0-3 0 2.53 2.53 0 0 0-1.5-.51 2.5 2.5 0 0 0-2.45 2H30a1 1 0 0 0-1 1v2H13a10 10 0 0 0-10 10v9c0 3.81 13.74 4 16.5 4s16.5-.19 16.5-4H60a1 1 0 0 0 1-1v-20A1 1 0 0 0 60 29.54zm-6.5 0a.5.5 0 1 1-.5.5A.5.5 0 0 1 53.5 29.54zM50 30a.5.5 0 1 1 1 0v.75a.5.5 0 0 1-1 0zm-3 0a.5.5 0 1 1 1 0v2a.5.5 0 0 1-1 0zm-3 0a.5.5 0 1 1 1 0v.75a.5.5 0 0 1-1 0zM24 36.2a6.38 6.38 0 0 1 .26 2.92 10.7 10.7 0 0 0-1.64-.91A5 5 0 0 0 24 36.2zm-1.69-1.66a3 3 0 0 1-6 0zM14.56 36.2a5.06 5.06 0 0 0 1.39 2 11.28 11.28 0 0 0-1.65.91A6.52 6.52 0 0 1 14.56 36.2zM19.5 53.54A62.41 62.41 0 0 1 10 52.9V46.54a1 1 0 0 0-2 0v6a7.21 7.21 0 0 1-3-1.11V42.54a8 8 0 0 1 8-8h.14c-1.67 2.85-.51 6.47-.45 6.66a1 1 0 0 0 .69.64 1.07 1.07 0 0 0 .91-.2A7.9 7.9 0 0 1 19 39.46h.5a7.9 7.9 0 0 1 4.72 2.18 1 1 0 0 0 1.6-.44c.06-.19 1.23-3.81-.44-6.66H29v16a1 1 0 0 0 1 1h3.86C32.82 52.3 28 53.54 19.5 53.54zm39.5-4H31v-18H42.13c.44 1.18 1.16 2.09 3.14 1.62a2.49 2.49 0 0 0 4.46 0 2.44 2.44 0 0 0 2.67-.76 2.4 2.4 0 0 0 3.18-.86H59z"/><path d="M40 40.54H36a1 1 0 0 0-1 1v5a1 1 0 0 0 1 1h4a1 1 0 0 0 1-1v-5A1 1 0 0 0 40 40.54zm-1 5H37v-3h2zM47 38.54H43a1 1 0 0 0-1 1v7a1 1 0 0 0 1 1h4a1 1 0 0 0 1-1v-7A1 1 0 0 0 47 38.54zm-1 7H44v-5h2zM54 35.54H50a1 1 0 0 0-1 1v10a1 1 0 0 0 1 1h4a1 1 0 0 0 1-1v-10A1 1 0 0 0 54 35.54zm-1 10H51v-8h2z"/></svg>